<svg xmlns="http://www.w3.org/2000/svg" width="180" height="79"><defs><style>.cls-3{fill-rule:evenodd;fill:#00ab92}</style></defs><path d="M37.951 6.225h1.07v-1.8a2.556 2.556 0 0 1 5.105 0v1.8h7.74v-1.8a2.506 2.506 0 0 1 2.553-2.429 2.581 2.581 0 0 1 2.635 2.429v1.8h.988a2.883 2.883 0 0 1 2.964 2.821v19.121a2.883 2.883 0 0 1-2.964 2.821H37.951a2.883 2.883 0 0 1-2.964-2.821V9.046a2.883 2.883 0 0 1 2.964-2.821zm15.562 0h1.894v-1.8a.916.916 0 0 0-.988-.862.893.893 0 0 0-.906.862v1.8zm0 3.448a.826.826 0 0 1-1.647 0V7.792h-11.2v1.881a.826.826 0 0 1-1.647 0V7.792h-1.07a1.27 1.27 0 0 0-1.317 1.254v3.527h22.727V9.046a1.27 1.27 0 0 0-1.317-1.254h-4.529v1.881zM40.668 6.225h1.811v-1.8a.907.907 0 0 0-1.811 0v1.8zm18.691 7.915H36.633v14.027a1.271 1.271 0 0 0 1.317 1.254h20.091a1.27 1.27 0 0 0 1.317-1.254V14.14z" fill-rule="evenodd" fill="#989898"/><path d="M130.816 22.337c0-1.908-.008-3.816.008-5.723a.606.606 0 0 0-.389-.643 4 4 0 0 1-2.378-3.806 4.016 4.016 0 0 1 2.5-3.8.381.381 0 0 0 .263-.4c0-.837-.017-1.676.028-2.511a1.328 1.328 0 0 1 1.425-1.31 1.36 1.36 0 0 1 1.327 1.412c.01.76.018 1.522 0 2.281a.534.534 0 0 0 .366.578 4.15 4.15 0 0 1 1.468 6.445 5.64 5.64 0 0 1-1.45 1.121.637.637 0 0 0-.384.645q.016 5.723.007 11.447c0 .142 0 .284-.009.425a1.358 1.358 0 0 1-1.383 1.243 1.313 1.313 0 0 1-1.355-1.22c-.049-.809-.034-1.622-.037-2.434-.01-1.25-.007-2.5-.007-3.75zm-8.627-10.892c0-1.959-.009-3.919 0-5.878a1.385 1.385 0 0 1 2-1.3 1.414 1.414 0 0 1 .788 1.394q-.008 5.2 0 10.4v.309a2.924 2.924 0 0 0 .037 1.181 2.759 2.759 0 0 0 .915.666 4.186 4.186 0 0 1-.676 7.288.41.41 0 0 0-.28.46c.012.76.009 1.521 0 2.281a1.4 1.4 0 1 1-2.784-.017c0-.774-.008-1.547 0-2.32a.37.37 0 0 0-.259-.4 4.2 4.2 0 0 1 .022-7.7.363.363 0 0 0 .234-.413q-.001-2.974.003-5.951zm-8.629 10.941c0-1.933-.006-3.867.006-5.8a.55.55 0 0 0-.353-.586 4.018 4.018 0 0 1-2.427-3.892 4 4 0 0 1 2.514-3.754.376.376 0 0 0 .261-.4c-.009-.825-.02-1.65 0-2.475a1.331 1.331 0 0 1 1.211-1.329 1.35 1.35 0 0 1 1.489.961 2.769 2.769 0 0 1 .076.687c.009.709.01 1.418 0 2.127a.436.436 0 0 0 .3.462 4.059 4.059 0 0 1 2.469 3.754 3.9 3.9 0 0 1-2.174 3.726.986.986 0 0 0-.6 1.062c.018 3.686.011 7.373.007 11.059a3.347 3.347 0 0 1-.058.73 1.356 1.356 0 0 1-1.412 1.024 1.338 1.338 0 0 1-1.288-1.166 3.4 3.4 0 0 1-.024-.463l.003-5.727zm0-10.186a1.382 1.382 0 1 0 2.764.007 1.382 1.382 0 1 0-2.763-.007zm10.021 10.858a1.39 1.39 0 0 0 .019-2.779 1.4 1.4 0 0 0-1.412 1.384 1.381 1.381 0 0 0 1.394 1.394zm7.254-10.873a1.383 1.383 0 1 0 2.765.036 1.383 1.383 0 1 0-2.764-.037z" fill="#d5d5d5" fill-rule="evenodd"/><path id="Shape_3_copy_2" data-name="Shape 3 copy 2" class="cls-3" d="M87.5 23.615l11.111-10.452a1.224 1.224 0 0 0 0-1.806 1.418 1.418 0 0 0-1.919 0L86.535 20.91 76.3 11.354a1.419 1.419 0 0 0-1.919.007 1.223 1.223 0 0 0 .007 1.805l11.2 10.452a1.418 1.418 0 0 0 1.912-.003z"/><path class="cls-3" d="M21.392 29.861c-.681-5.754-3.1-7.515-9.127-7.515s-8.445 1.761-9.127 7.515H.479C1.347 22.68 4.768 19.7 12.265 19.7s10.918 2.98 11.786 10.161h-2.659zm-9.127-12.81a7.943 7.943 0 1 1 8.018-7.942 7.98 7.98 0 0 1-8.018 7.942zm0-13.237a5.295 5.295 0 1 0 5.345 5.295 5.32 5.32 0 0 0-5.345-5.295z"/></svg>