<svg xmlns="http://www.w3.org/2000/svg" viewBox="0 0 752.9 764.9"><path d="M735.2 748.2L567.3 579.9l-34.6-34.7c16.8-9.3 32.5-20.2 46.9-32.6 59.6-51.2 97.3-127 97.3-211.7 0-147.4-114.3-268.1-259.1-278.3l-.7-.7H27.8v726.3H95v-659h303c115.3 0 208.8 96.4 208.8 211.8 0 85.4-51.2 160.4-124.6 193.6-23.7 10.7-49.7 17.1-77 18l.1.1 59.2 59.3 8 8 100.8 101h-76.6L279.1 463h107.4v-.3c91.1 0 165-73.9 165-165s-73.9-165-165-165H168V200h218.3c54 0 97.8 43.8 97.8 97.8s-43.8 97.8-97.8 97.8v.3H168v352.3h67.3V514.4l233.3 233.8h266.6z" fill="#ec202b"/></svg>