<?xml version="1.0" encoding="utf-8"?>
<!-- Generator: Adobe Illustrator 19.0.0, SVG Export Plug-In . SVG Version: 6.00 Build 0)  -->
<svg version="1.1" id="Layer_1" xmlns="http://www.w3.org/2000/svg" xmlns:xlink="http://www.w3.org/1999/xlink" x="0px" y="0px"
	 viewBox="0 0 89.9 147.6" style="enable-background:new 0 0 89.9 147.6;" xml:space="preserve">
<path id="XMLID_1_" d="M89.9,73.8L19.4,3.3C15-1.1,7.8-1.1,3.4,3.3c0,0,0,0-0.1,0.1l0,0c-4.4,4.4-4.5,11.5-0.1,15.9
	c0,0,0.1,0.1,0.1,0.1l54.5,54.5L3.3,128.2c-4.4,4.4-4.5,11.5-0.1,15.9c0,0,0.1,0.1,0.1,0.1l0,0c4.4,4.4,11.6,4.5,16,0.1
	c0,0,0,0,0.1-0.1L89.9,73.8z"/>
</svg>
