<svg xmlns="http://www.w3.org/2000/svg" width="180" height="79" viewBox="0 0 180 79">
  <metadata><?xpacket begin="﻿" id="W5M0MpCehiHzreSzNTczkc9d"?>
<x:xmpmeta xmlns:x="adobe:ns:meta/" x:xmptk="Adobe XMP Core 5.6-c138 79.159824, 2016/09/14-01:09:01        ">
   <rdf:RDF xmlns:rdf="http://www.w3.org/1999/02/22-rdf-syntax-ns#">
      <rdf:Description rdf:about=""/>
   </rdf:RDF>
</x:xmpmeta>
                                                                                                    
                                                                                                    
                                                                                                    
                                                                                                    
                                                                                                    
                                                                                                    
                                                                                                    
                                                                                                    
                                                                                                    
                                                                                                    
                                                                                                    
                                                                                                    
                                                                                                    
                                                                                                    
                                                                                                    
                                                                                                    
                                                                                                    
                                                                                                    
                                                                                                    
                                                                                                    
                           
<?xpacket end="w"?></metadata>
<defs>
    <style>
      .cls-1 {
        fill: #989898;
      }

      .cls-1, .cls-2, .cls-3 {
        fill-rule: evenodd;
      }

      .cls-2 {
        fill: #d5d5d5;
      }

      .cls-3 {
        fill: #00ab92;
      }
    </style>
  </defs>
  <path class="cls-1" d="M37.951,6.225h1.07v-1.8a2.556,2.556,0,0,1,5.105,0v1.8h7.74v-1.8a2.506,2.506,0,0,1,2.553-2.429,2.581,2.581,0,0,1,2.635,2.429v1.8h0.988a2.883,2.883,0,0,1,2.964,2.821V28.167a2.883,2.883,0,0,1-2.964,2.821H37.951a2.883,2.883,0,0,1-2.964-2.821V9.046A2.883,2.883,0,0,1,37.951,6.225Zm15.562,0h1.894v-1.8a0.916,0.916,0,0,0-.988-0.862,0.893,0.893,0,0,0-.906.862v1.8Zm0,3.448a0.826,0.826,0,0,1-1.647,0V7.792h-11.2V9.673a0.826,0.826,0,0,1-1.647,0V7.792h-1.07a1.27,1.27,0,0,0-1.317,1.254v3.527H59.359V9.046a1.27,1.27,0,0,0-1.317-1.254H53.513V9.673ZM40.668,6.225h1.811v-1.8a0.907,0.907,0,0,0-1.811,0v1.8ZM59.359,14.14H36.633V28.167a1.271,1.271,0,0,0,1.317,1.254H58.041a1.27,1.27,0,0,0,1.317-1.254V14.14Z"/>
  <path class="cls-2" d="M130.816,22.337c0-1.908-.008-3.816.008-5.723a0.606,0.606,0,0,0-.389-0.643,4,4,0,0,1-2.378-3.806,4.016,4.016,0,0,1,2.5-3.8,0.381,0.381,0,0,0,.263-0.4c0-.837-0.017-1.676.028-2.511a1.328,1.328,0,0,1,1.425-1.31A1.36,1.36,0,0,1,133.6,5.556c0.01,0.76.018,1.522,0,2.281a0.534,0.534,0,0,0,.366.578,4.15,4.15,0,0,1,1.468,6.445,5.64,5.64,0,0,1-1.45,1.121,0.637,0.637,0,0,0-.384.645q0.016,5.723.007,11.447c0,0.142,0,.284-0.009.425a1.358,1.358,0,0,1-1.383,1.243,1.313,1.313,0,0,1-1.355-1.22c-0.049-.809-0.034-1.622-0.037-2.434C130.813,24.837,130.816,23.587,130.816,22.337Zm-8.627-10.892c0-1.959-.009-3.919,0-5.878a1.385,1.385,0,0,1,2-1.3,1.414,1.414,0,0,1,.788,1.394q-0.008,5.2,0,10.4v0.309a2.924,2.924,0,0,0,.037,1.181,2.759,2.759,0,0,0,.915.666,4.186,4.186,0,0,1-.676,7.288,0.41,0.41,0,0,0-.28.46c0.012,0.76.009,1.521,0,2.281a1.4,1.4,0,1,1-2.784-.017c0-.774-0.008-1.547,0-2.32a0.37,0.37,0,0,0-.259-0.4,4.2,4.2,0,0,1,.022-7.7,0.363,0.363,0,0,0,.234-0.413Q122.185,14.422,122.189,11.445ZM113.56,22.386c0-1.933-.006-3.867.006-5.8A0.55,0.55,0,0,0,113.213,16a4.018,4.018,0,0,1-2.427-3.892A4,4,0,0,1,113.3,8.354a0.376,0.376,0,0,0,.261-0.4c-0.009-.825-0.02-1.65,0-2.475a1.331,1.331,0,0,1,1.211-1.329,1.35,1.35,0,0,1,1.489.961,2.769,2.769,0,0,1,.076.687c0.009,0.709.01,1.418,0,2.127a0.436,0.436,0,0,0,.3.462,4.059,4.059,0,0,1,2.469,3.754,3.9,3.9,0,0,1-2.174,3.726,0.986,0.986,0,0,0-.6,1.062c0.018,3.686.011,7.373,0.007,11.059a3.347,3.347,0,0,1-.058.73,1.356,1.356,0,0,1-1.412,1.024,1.338,1.338,0,0,1-1.288-1.166,3.4,3.4,0,0,1-.024-0.463Q113.558,25.248,113.56,22.386Zm0-10.186a1.382,1.382,0,1,0,2.764.007A1.382,1.382,0,1,0,113.561,12.2Zm10.021,10.858a1.39,1.39,0,0,0,.019-2.779,1.4,1.4,0,0,0-1.412,1.384A1.381,1.381,0,0,0,123.582,23.057Zm7.254-10.873a1.383,1.383,0,1,0,2.765.036A1.383,1.383,0,1,0,130.836,12.184Z"/>
  <path id="Shape_3_copy_2" data-name="Shape 3 copy 2" class="cls-3" d="M87.5,23.615L98.611,13.163a1.224,1.224,0,0,0,0-1.806,1.418,1.418,0,0,0-1.919,0L86.535,20.91,76.3,11.354a1.419,1.419,0,0,0-1.919.007,1.223,1.223,0,0,0,.007,1.805l11.2,10.452A1.418,1.418,0,0,0,87.5,23.615Z"/>
  <path class="cls-3" d="M21.392,29.861c-0.681-5.754-3.1-7.515-9.127-7.515s-8.445,1.761-9.127,7.515H0.479C1.347,22.68,4.768,19.7,12.265,19.7S23.183,22.68,24.051,29.861H21.392Zm-9.127-12.81a7.943,7.943,0,1,1,8.018-7.942A7.98,7.98,0,0,1,12.265,17.051Zm0-13.237A5.295,5.295,0,1,0,17.61,9.109,5.32,5.32,0,0,0,12.265,3.814Z"/>
</svg>
