<?xml version="1.0" encoding="utf-8"?>
<!-- Generator: Adobe Illustrator 19.0.0, SVG Export Plug-In . SVG Version: 6.00 Build 0)  -->
<svg version="1.1" id="Capa_1" xmlns="http://www.w3.org/2000/svg" xmlns:xlink="http://www.w3.org/1999/xlink" x="0px" y="0px"
	 viewBox="58 205 150 150" style="enable-background:new 58 205 150 150;" xml:space="preserve">
<style type="text/css">
	.st0{fill:#010002;}
</style>
<g>
	<g>
		<path class="st0" d="M208,233.5c-5.5,2.4-11.4,4.1-17.7,4.8c6.4-3.8,11.2-9.8,13.5-17c-6,3.5-12.5,6.1-19.6,7.5
			c-5.6-6-13.6-9.7-22.5-9.7c-17,0-30.8,13.8-30.8,30.8c0,2.4,0.3,4.8,0.8,7c-25.6-1.3-48.2-13.5-63.4-32.2
			c-2.7,4.5-4.2,9.8-4.2,15.5c0,10.7,5.4,20.1,13.7,25.6c-5-0.2-9.8-1.6-13.9-3.9v0.4c0,14.9,10.6,27.3,24.7,30.2
			c-2.6,0.7-5.3,1.1-8.1,1.1c-2,0-3.9-0.2-5.8-0.6c3.9,12.2,15.3,21.1,28.7,21.4c-10.5,8.2-23.8,13.2-38.2,13.2
			c-2.5,0-4.9-0.1-7.3-0.4c13.6,8.7,29.8,13.8,47.2,13.8c56.6,0,87.5-46.9,87.5-87.5l-0.1-4C198.7,245.1,203.9,239.7,208,233.5z"/>
	</g>
</g>
</svg>
