<?xml version="1.0" encoding="utf-8"?>
<!-- Generator: Adobe Illustrator 19.0.0, SVG Export Plug-In . SVG Version: 6.00 Build 0)  -->
<svg version="1.1" id="Capa_1" xmlns="http://www.w3.org/2000/svg" xmlns:xlink="http://www.w3.org/1999/xlink" x="0px" y="0px"
	 viewBox="-42 206 150 150" style="enable-background:new -42 206 150 150;" xml:space="preserve">
<g>
	<g>
		<path d="M101.6,239.4c-4.1-7.2-8.5-8.6-17.5-9.1c-9-0.6-31.6-0.9-51.1-0.9c-19.6,0-42.2,0.3-51.2,0.9c-9,0.5-13.4,1.8-17.5,9.1
			c-4.2,7.2-6.3,19.7-6.3,41.6c0,0,0,0,0,0c0,0,0,0,0,0v0c0,21.8,2.2,34.4,6.3,41.5c4.1,7.2,8.5,8.5,17.5,9.2
			c9,0.5,31.6,0.8,51.2,0.8c19.6,0,42.1-0.3,51.1-0.8c9-0.6,13.4-1.9,17.5-9.2c4.2-7.2,6.4-19.7,6.4-41.5c0,0,0,0,0,0c0,0,0,0,0,0
			C108,259.1,105.9,246.6,101.6,239.4z M14.3,309.1v-56.3L61.1,281L14.3,309.1z"/>
	</g>
</g>
</svg>
