<?xml version="1.0" encoding="utf-8"?>
<!-- Generator: Adobe Illustrator 19.0.0, SVG Export Plug-In . SVG Version: 6.00 Build 0)  -->
<svg version="1.1" id="Layer_1" xmlns="http://www.w3.org/2000/svg" xmlns:xlink="http://www.w3.org/1999/xlink" x="0px" y="0px"
	 viewBox="0 0 150 150" style="enable-background:new 0 0 150 150;" xml:space="preserve">
<g>
	<g>
		<path id="XMLID_1_" d="M126.1,25.8C117,34.9,107.9,44,98.8,53.1c-14.5,14.5-29,29-43.5,43.5c-3.3,3.3-6.6,6.6-9.9,9.9
			c6.6,0,13.2,0,19.9,0C53.1,94.4,41,82.2,28.9,70.1c-1.7-1.7-3.4-3.4-5.1-5.1C18.7,59.8,9.1,59.4,4,65c-5.2,5.6-5.5,14.3,0,19.9
			c12.1,12.1,24.2,24.3,36.3,36.4c1.7,1.7,3.4,3.4,5.1,5.1c5.4,5.4,14.5,5.4,19.9,0c9.1-9.1,18.2-18.2,27.3-27.3
			c14.5-14.5,29-29,43.5-43.5c3.3-3.3,6.6-6.6,9.9-9.9c5.2-5.2,5.6-14.7,0-19.9C140.3,20.7,131.6,20.3,126.1,25.8L126.1,25.8z"/>
	</g>
</g>
</svg>
