<?xml version="1.0" encoding="utf-8"?>
<!-- Generator: Adobe Illustrator 19.0.0, SVG Export Plug-In . SVG Version: 6.00 Build 0)  -->
<svg version="1.1" id="Layer_1" xmlns="http://www.w3.org/2000/svg" xmlns:xlink="http://www.w3.org/1999/xlink" x="0px" y="0px"
	 viewBox="-384.5 206.5 150 150" style="enable-background:new -384.5 206.5 150 150;" xml:space="preserve">
<g>
	<path d="M-275.9,206.5h-67.2c-22.8,0-41.4,18.6-41.4,41.4v67.2c0,22.8,18.6,41.4,41.4,41.4h67.2c22.8,0,41.4-18.6,41.4-41.4v-67.2
		C-234.5,225-253,206.5-275.9,206.5z M-247.8,315.1c0,15.5-12.6,28.1-28.1,28.1h-67.2c-15.5,0-28.1-12.6-28.1-28.1v-67.2
		c0-15.5,12.6-28.1,28.1-28.1h67.2c15.5,0,28.1,12.6,28.1,28.1L-247.8,315.1L-247.8,315.1z"/>
	<path d="M-309.5,242.8c-21.3,0-38.7,17.3-38.7,38.7c0,21.3,17.3,38.6,38.7,38.6s38.7-17.3,38.7-38.6
		C-270.8,260.2-288.2,242.8-309.5,242.8z M-309.5,306.8c-14,0-25.3-11.4-25.3-25.3c0-14,11.4-25.3,25.3-25.3s25.3,11.4,25.3,25.3
		C-284.1,295.4-295.5,306.8-309.5,306.8z"/>
	<path d="M-269.2,231.5c-2.6,0-5.1,1-6.9,2.9c-1.8,1.8-2.9,4.3-2.9,6.9c0,2.6,1,5.1,2.9,6.9c1.8,1.8,4.3,2.9,6.9,2.9
		c2.6,0,5.1-1,6.9-2.9c1.8-1.8,2.9-4.3,2.9-6.9c0-2.6-1-5.1-2.9-6.9C-264.1,232.6-266.6,231.5-269.2,231.5z"/>
</g>
</svg>
