<?xml version="1.0" encoding="utf-8"?>
<!-- Generator: Adobe Illustrator 19.0.0, SVG Export Plug-In . SVG Version: 6.00 Build 0)  -->
<svg version="1.1" id="Layer_1" xmlns="http://www.w3.org/2000/svg" xmlns:xlink="http://www.w3.org/1999/xlink" x="0px" y="0px"
	 viewBox="-41.1 203.3 150 150" style="enable-background:new -41.1 203.3 150 150;" xml:space="preserve">
<g>
	<rect x="-40.1" y="253.9" width="32.2" height="96.7"/>
	<path d="M-24,240.7h-0.2C-35,240.7-42,233.3-42,224c0-9.5,7.2-16.7,18.2-16.7s17.8,7.2,18,16.7C-5.8,233.3-12.8,240.7-24,240.7z"/>
	<path d="M108,350.7H75.8v-51.8c0-13-4.7-21.9-16.3-21.9c-8.9,0-14.2,6-16.5,11.8c-0.9,2.1-1.1,5-1.1,7.8v54H9.9
		c0,0,0.4-87.7,0-96.7H42v13.7c4.3-6.6,11.9-16,29-16c21.2,0,37,13.8,37,43.5V350.7z"/>
</g>
</svg>
